# xmcd
#
# Track frame offsets: 
#        150
#        16897
#        30075
#        56672
#        71992
#        84882
#        95182
#        110807
#
# Disc length: 2870 seconds
#
# Revision: 3
# Processed by: cddbd v1.5.2PL0 Copyright (c) Steve Scherf et al.
# Submitted via: ExactAudioCopyFreeDBPlugin 1.0
#
DISCID=630b3408
DTITLE=Canned Heat - Let's Work Together [Goldies]
DYEAR=2001
DGENRE=Blues
TTITLE0=Let's Work Together
TTITLE1=Going Up the Country
TTITLE2=Amphetamine Annie
TTITLE3=On the Road Again
TTITLE4=Same All Over
TTITLE5=I've Got My Eyes on You
TTITLE6=So Long
TTITLE7=Refried Hockey Boogie
EXTD=
EXTT0=
EXTT1=
EXTT2=
EXTT3=
EXTT4=
EXTT5=
EXTT6=
EXTT7=
PLAYORDER=
